<svg xmlns="http://www.w3.org/2000/svg" viewBox="0 0 467.32 467.31"><defs><style>.a{fill:#39b54a;}.a,.b,.c,.d,.g,.h{stroke:#534741;stroke-miterlimit:10;}.a,.b,.c,.d,.g{stroke-width:4px;}.b{fill:#f7931e;}.c{fill:#29abe2;}.d{fill:#ffdab4;}.e{fill:#c7b299;}.f{fill:#534741;}.g{fill:#998675;}.h{fill:none;stroke-width:13px;}</style></defs><path class="a" d="M1064,775V662h95S1170,767,1064,775Z" transform="translate(-694 -309.84)"/><rect class="b" x="371" y="234.16" width="93" height="120"/><rect class="c" x="371" y="113.16" width="93" height="121"/><path class="d" d="M1064,312V425h95S1170,320,1064,312Z" transform="translate(-694 -309.84)"/><path class="e" d="M788.51,775A92.62,92.62,0,0,1,696,682.49v-278A92.62,92.62,0,0,1,788.51,312h276V775Z" transform="translate(-694 -309.84)"/><path class="f" d="M1062.49,314V773h-274A90.79,90.79,0,0,1,698,682.49v-278A90.79,90.79,0,0,1,788.51,314h274m4-4h-278c-52,0-94.51,42.53-94.51,94.51v278c0,52,42.53,94.51,94.51,94.51h278V310Z" transform="translate(-694 -309.84)"/><path class="g" d="M804.5,626.5s18-34,96-34,91.92,40.28,91.92,40.28S906.5,735.5,804.5,626.5Z" transform="translate(-694 -309.84)"/><circle class="h" cx="207" cy="242.16" r="122"/><circle class="g" cx="207" cy="225.16" r="50"/></svg>